<?xml version="1.0" ?><!-- Uploaded to: SVG Repo, www.svgrepo.com, Generator: SVG Repo Mixer Tools -->
<svg width="800px" height="800px" viewBox="0 0 32 32" id="icons" version="1.0" xml:space="preserve" xmlns="http://www.w3.org/2000/svg" xmlns:xlink="http://www.w3.org/1999/xlink"><style type="text/css">
	.st0{fill:none;stroke:#152730;stroke-width:4;stroke-miterlimit:10;}
	.st1{fill:none;stroke:#152730;stroke-width:2;stroke-miterlimit:10;}
	.st2{fill:none;stroke:#152730;stroke-miterlimit:10;}
</style><line class="st0" id="XMLID_42_" x1="6" x2="26" y1="13" y2="13"/><line class="st1" id="XMLID_51_" x1="8" x2="2" y1="18" y2="18"/><line class="st1" id="XMLID_47_" x1="3" x2="3" y1="17" y2="9"/><line class="st2" id="XMLID_45_" x1="8.5" x2="8.5" y1="17" y2="21"/><line class="st2" id="XMLID_44_" x1="9" x2="4" y1="21.5" y2="21.5"/><line class="st1" id="XMLID_41_" x1="8" x2="2" y1="18" y2="18"/><line class="st1" id="XMLID_38_" x1="3" x2="3" y1="17" y2="9"/><line class="st1" id="XMLID_37_" x1="8" x2="8" y1="17" y2="21"/><line class="st1" id="XMLID_36_" x1="9" x2="4" y1="22" y2="22"/><line class="st1" id="XMLID_59_" x1="24" x2="30" y1="18" y2="18"/><line class="st1" id="XMLID_58_" x1="29" x2="29" y1="17" y2="9"/><line class="st1" id="XMLID_55_" x1="24" x2="24" y1="17" y2="21"/><line class="st1" id="XMLID_54_" x1="23" x2="28" y1="22" y2="22"/><line class="st1" id="XMLID_34_" x1="12" x2="12" y1="15" y2="23"/><line class="st1" id="XMLID_35_" x1="20" x2="20" y1="15" y2="23"/><g id="XMLID_386_"/></svg>